<?xml version="1.0" encoding="utf-8"?>
<!-- Generator: Adobe Illustrator 16.0.2, SVG Export Plug-In . SVG Version: 6.00 Build 0)  -->
<!DOCTYPE svg PUBLIC "-//W3C//DTD SVG 1.1//EN" "http://www.w3.org/Graphics/SVG/1.1/DTD/svg11.dtd">
<svg version="1.1" id="Layer_1" xmlns="http://www.w3.org/2000/svg" xmlns:xlink="http://www.w3.org/1999/xlink" x="0px" y="0px"
	 width="64px" height="64px" viewBox="0 0 64 64" enable-background="new 0 0 64 64" xml:space="preserve">
<g>
	<path fill-rule="evenodd" clip-rule="evenodd" fill="#FFFFFF" d="M64,19.613C64,34.408,64,49.204,64,64c-4.473,0-8.946,0-13.42,0
		c2.786-0.929,4.542-3.17,6.501-5.139c3.129-3.146,3.12-7.237,0.016-10.379c-2.066-2.092-11.303-4.858-14.157-4.227
		c-0.445,0.098-0.951,0.171-1.296,0.433c-1.312,0.995-2.636,1.994-3.823,3.13c-0.804,0.768-1.511,1.015-2.593,0.649
		c-8.935-3.021-15.163-8.889-18.943-17.524c-1.087-2.482-1.077-4.299,1.201-6.071c2.113-1.643,2.839-4.071,2.291-6.65
		c-0.605-2.853-1.314-5.716-2.338-8.44C15.592,4.872,9.206,2.504,5.044,7.01C4.15,7.978,3.225,8.923,2.245,9.803
		c-1.479,1.329-2.017,2.972-1.989,4.915c0.345,23.697,17.662,44.116,40.964,48.207c2.866,0.503,5.78,0.724,8.672,1.075
		C33.279,64,16.667,64,0,64c0-10.637,0-21.274,0-31.911C0,21.434,0,10.778,0,0c14.795,0,29.591,0,44.387,0
		c1.871,1.837,3.741,3.673,5.785,5.682c-4.722,4.661-9.257,9.138-13.517,13.344c2.878,2.875,5.521,5.515,8.45,8.439
		c4.269-4.303,8.727-8.797,13.425-13.532C60.364,15.837,62.182,17.725,64,19.613z"/>
	<path fill-rule="evenodd" clip-rule="evenodd" d="M49.893,64c-2.892-0.352-5.806-0.572-8.672-1.075
		c-23.303-4.091-40.62-24.51-40.964-48.207c-0.028-1.943,0.51-3.586,1.989-4.915C3.225,8.923,4.15,7.978,5.044,7.01
		c4.161-4.505,10.548-2.138,12.394,2.772c1.023,2.724,1.732,5.587,2.338,8.44c0.548,2.579-0.178,5.007-2.291,6.65
		c-2.278,1.772-2.288,3.589-1.201,6.071c3.78,8.636,10.008,14.503,18.943,17.524c1.082,0.365,1.789,0.118,2.593-0.649
		c1.188-1.136,2.512-2.135,3.823-3.13c0.345-0.262,0.851-0.335,1.296-0.433c2.854-0.632,12.091,2.135,14.157,4.227
		c3.104,3.142,3.113,7.233-0.016,10.379c-1.959,1.969-3.715,4.21-6.501,5.139C50.352,64,50.121,64,49.893,64z"/>
	<path fill-rule="evenodd" clip-rule="evenodd" d="M64,19.613c-1.818-1.888-3.636-3.776-5.47-5.68
		c-4.698,4.735-9.156,9.229-13.425,13.532c-2.929-2.925-5.572-5.565-8.45-8.439c4.26-4.206,8.795-8.683,13.517-13.344
		C48.128,3.673,46.258,1.837,44.387,0C50.925,0,57.463,0,64,0C64,6.538,64,13.075,64,19.613z"/>
</g>
</svg>
