<?xml version="1.0" encoding="utf-8"?>
<!-- Generator: Adobe Illustrator 16.0.2, SVG Export Plug-In . SVG Version: 6.00 Build 0)  -->
<!DOCTYPE svg PUBLIC "-//W3C//DTD SVG 1.1//EN" "http://www.w3.org/Graphics/SVG/1.1/DTD/svg11.dtd">
<svg version="1.1" id="Layer_1" xmlns="http://www.w3.org/2000/svg" xmlns:xlink="http://www.w3.org/1999/xlink" x="0px" y="0px"
	 width="64px" height="64px" viewBox="0 0 64 64" enable-background="new 0 0 64 64" xml:space="preserve">
<g>
	<path fill-rule="evenodd" clip-rule="evenodd" fill="#FFFFFF" d="M64,16.313C64,32.158,64,48.003,64,64c-17.066,0-34.133,0-51.2,0
		c0.168-2.488,0.239-4.988,0.522-7.465c1.105-9.684,6.423-15.844,16.014-18.505c4.6-1.276,9.29-2.251,13.863-3.604
		c7.008-2.071,11.36-6.714,13.041-13.719c0.455-1.898,0.88-3.803,1.329-5.756C59.9,15.445,61.949,15.88,64,16.313z"/>
	<path fill-rule="evenodd" clip-rule="evenodd" fill="#FFFFFF" d="M10.24,0c14.507,0,29.013,0,43.52,0
		c-2.935,5.247-5.869,10.493-9.174,16.401c2.604-0.628,4.475-1.08,6.381-1.539c0.566,5.713-2.448,11.12-7.685,13.439
		c-2.593,1.148-5.388,2.008-8.183,2.533c-8.068,1.513-15.734,3.735-21.569,9.884c-0.092,0.097-0.385,0.012-0.731,0.012
		c0-8.538,0-17.058,0-25.94c2.126,0.522,4.003,0.984,6.635,1.631C16.114,10.491,13.177,5.246,10.24,0z"/>
	<path fill-rule="evenodd" clip-rule="evenodd" d="M10.24,0c2.938,5.246,5.874,10.491,9.195,16.421
		c-2.632-0.647-4.509-1.108-6.635-1.631c0,8.883,0,17.403,0,25.94c0.346,0,0.639,0.085,0.731-0.012
		c5.835-6.149,13.501-8.371,21.569-9.884c2.795-0.524,5.59-1.384,8.183-2.533c5.236-2.32,8.251-7.727,7.685-13.439
		c-1.906,0.459-3.777,0.911-6.381,1.539C47.891,10.493,50.825,5.247,53.76,0c0.214,0,0.427,0,0.641,0
		c3.199,5.229,6.4,10.458,9.6,15.687c0,0.209,0,0.418,0,0.627c-2.051-0.434-4.1-0.868-6.431-1.361
		c-0.449,1.953-0.874,3.858-1.329,5.756c-1.681,7.005-6.033,11.647-13.041,13.719c-4.573,1.353-9.264,2.327-13.863,3.604
		c-9.59,2.661-14.908,8.821-16.014,18.505C13.039,59.012,12.968,61.512,12.8,64c-1.92,0-3.84,0-5.76,0c0-16.348,0-32.696,0-49.223
		C4.104,15.418,2.051,15.866,0,16.313c0-0.209,0-0.418,0-0.627C3.2,10.458,6.4,5.229,9.6,0C9.813,0,10.027,0,10.24,0z"/>
	<path fill-rule="evenodd" clip-rule="evenodd" fill="#FFFFFF" d="M0,16.313c2.051-0.448,4.104-0.895,7.04-1.536
		c0,16.527,0,32.875,0,49.223C4.693,64,2.346,64,0,64C0,48.104,0,32.208,0,16.313z"/>
	<path fill-rule="evenodd" clip-rule="evenodd" fill="#FFFFFF" d="M9.6,0C6.4,5.229,3.2,10.458,0,15.687C0,10.522,0,5.358,0,0
		C3.197,0,6.399,0,9.6,0z"/>
	<path fill-rule="evenodd" clip-rule="evenodd" fill="#FFFFFF" d="M64,15.687C60.801,10.458,57.6,5.229,54.4,0c3.16,0,6.32,0,9.6,0
		C64,5.229,64,10.457,64,15.687z"/>
</g>
</svg>
