<?xml version="1.0" encoding="utf-8"?>
<!-- Generator: Adobe Illustrator 16.0.2, SVG Export Plug-In . SVG Version: 6.00 Build 0)  -->
<!DOCTYPE svg PUBLIC "-//W3C//DTD SVG 1.1//EN" "http://www.w3.org/Graphics/SVG/1.1/DTD/svg11.dtd">
<svg version="1.1" id="Layer_1" xmlns="http://www.w3.org/2000/svg" xmlns:xlink="http://www.w3.org/1999/xlink" x="0px" y="0px"
	 width="64px" height="64px" viewBox="0 0 64 64" enable-background="new 0 0 64 64" xml:space="preserve">
<g>
	<path fill-rule="evenodd" clip-rule="evenodd" fill="#FFFFFF" d="M64,64c-21.342,0-42.676,0-64,0C0,42.657,0,21.324,0,0
		c21.343,0,42.676,0,64,0C64,21.343,64,42.677,64,64z M63.632,32.13C63.621,14.629,49.467,0.375,32.097,0.373
		C14.583,0.37,0.372,14.579,0.376,32.091c0.003,17.355,14.291,31.541,31.757,31.533C49.34,63.617,63.644,49.315,63.632,32.13z"/>
	<path fill-rule="evenodd" clip-rule="evenodd" d="M63.632,32.13c0.012,17.185-14.292,31.487-31.499,31.494
		C14.667,63.632,0.379,49.446,0.376,32.091C0.372,14.579,14.583,0.37,32.097,0.373C49.467,0.375,63.621,14.629,63.632,32.13z
		 M33.162,28.654c0.304-1.731,0.554-3.236,0.836-4.736c0.625-3.319,1.295-6.629,1.865-9.957c0.081-0.474-0.295-1.025-0.459-1.542
		c-0.463,0.268-0.94,0.517-1.382,0.815c-0.149,0.101-0.215,0.329-0.314,0.501c-3.683,6.379-7.371,12.754-11.044,19.138
		c-1.111,1.93-0.806,2.461,1.38,2.471c2.18,0.009,4.36,0.001,6.621,0.001c0,0.561,0.059,0.956-0.01,1.327
		c-0.404,2.198-0.839,4.392-1.262,6.586c-0.442,2.292-0.93,4.577-1.286,6.884c-0.071,0.459,0.36,0.995,0.56,1.496
		c0.428-0.258,0.887-0.478,1.272-0.787c0.218-0.175,0.318-0.498,0.467-0.757c3.654-6.338,7.307-12.676,10.959-19.016
		c1.088-1.888,0.773-2.417-1.45-2.424C37.737,28.648,35.561,28.654,33.162,28.654z"/>
	<path fill-rule="evenodd" clip-rule="evenodd" fill="#FFFFFF" d="M33.162,28.654c2.398,0,4.575-0.006,6.753,0.001
		c2.224,0.007,2.538,0.536,1.45,2.424c-3.652,6.34-7.306,12.678-10.959,19.016c-0.149,0.259-0.249,0.582-0.467,0.757
		c-0.386,0.31-0.845,0.529-1.272,0.787c-0.2-0.501-0.631-1.037-0.56-1.496c0.356-2.307,0.844-4.592,1.286-6.884
		c0.423-2.194,0.858-4.388,1.262-6.586c0.068-0.371,0.01-0.767,0.01-1.327c-2.261,0-4.441,0.008-6.621-0.001
		c-2.186-0.01-2.491-0.541-1.38-2.471c3.674-6.384,7.362-12.759,11.044-19.138c0.1-0.172,0.165-0.4,0.314-0.501
		c0.441-0.299,0.919-0.547,1.382-0.815c0.164,0.516,0.54,1.068,0.459,1.542c-0.57,3.328-1.24,6.638-1.865,9.957
		C33.716,25.417,33.466,26.923,33.162,28.654z"/>
</g>
</svg>
