<?xml version="1.0" encoding="utf-8"?>
<!-- Generator: Adobe Illustrator 16.0.2, SVG Export Plug-In . SVG Version: 6.00 Build 0)  -->
<!DOCTYPE svg PUBLIC "-//W3C//DTD SVG 1.1//EN" "http://www.w3.org/Graphics/SVG/1.1/DTD/svg11.dtd">
<svg version="1.1" id="Layer_1" xmlns="http://www.w3.org/2000/svg" xmlns:xlink="http://www.w3.org/1999/xlink" x="0px" y="0px"
	 width="64px" height="64px" viewBox="0 0 64 64" enable-background="new 0 0 64 64" xml:space="preserve">
<g>
	<path fill-rule="evenodd" clip-rule="evenodd" fill="#FFFFFF" d="M64,64c-21.333,0-42.667,0-64,0C0,42.667,0,21.333,0,0
		c21.333,0,42.667,0,64,0C64,21.333,64,42.667,64,64z M9.153,24.752C1.006,30.201-2.734,43.289,3.548,53.783
		C9.753,64.149,22.11,65.725,28.88,61.077c-4.584-4.531-7.307-10.063-7.883-16.772c-0.038-0.446-0.434-0.944-0.786-1.256
		c-1.333-1.175-2.817-2.17-4.063-3.437C12.213,35.61,9.974,30.629,9.153,24.752z M35.067,61.139
		c8.618,5.259,21.178,1.865,26.413-9.294c5.239-11.166-0.107-23.172-6.299-26.806c-0.975,2.794-1.756,5.747-3.006,8.45
		c-1.862,4.032-4.781,7.141-8.341,9.54c-0.343,0.231-0.733,0.698-0.769,1.09C42.457,50.863,39.776,56.476,35.067,61.139z
		 M12.562,18.724c0.289-0.046,0.565-0.052,0.818-0.138c6.268-2.129,12.231-1.281,17.972,2.037c0.351,0.203,0.984,0.174,1.345-0.032
		c4.448-2.545,9.117-3.783,14.161-2.879c1.532,0.274,3.054,0.622,4.61,0.942C49.962,7.843,41.418,0.167,31.383,0.404
		C21.954,0.626,13.944,8.401,12.562,18.724z M31.973,43.458c2.338-0.611,4.621-1.238,6.917-1.792
		c0.781-0.188,0.957-0.661,0.879-1.403c-0.604-5.787-2.908-10.614-7.084-14.35c-0.272-0.244-1.029-0.292-1.284-0.067
		c-4.248,3.741-6.604,8.604-7.128,14.465c-0.039,0.434,0.47,1.232,0.859,1.351C27.354,42.336,29.616,42.856,31.973,43.458z
		 M28.939,23.378c-4.071-2.824-11.483-3.278-15.835-0.959c-0.338,0.18-0.72,0.863-0.654,1.222c0.382,2.1,0.716,4.242,1.396,6.239
		c1.345,3.945,3.758,7.043,7.18,9.499C21.867,32.88,24.543,27.627,28.939,23.378z M43.015,39.533
		c1.171-1.098,2.098-1.858,2.908-2.745c3.277-3.588,5.166-7.892,5.665-12.906c0.09-0.91-0.212-1.319-1.007-1.635
		c-3.55-1.409-7.169-1.698-10.837-0.802c-1.598,0.391-3.131,1.082-4.912,1.714C39.457,27.67,42.138,32.917,43.015,39.533z
		 M39.638,45.167c-5.231,1.765-10.121,1.874-14.997,0.061c-0.322,4.516,4.104,12.031,7.517,13.868
		C36.214,55.619,38.737,51.169,39.638,45.167z"/>
	<path fill-rule="evenodd" clip-rule="evenodd" d="M9.153,24.752c0.82,5.877,3.06,10.858,6.995,14.86
		c1.246,1.267,2.729,2.262,4.063,3.437c0.353,0.312,0.748,0.81,0.786,1.256c0.577,6.709,3.299,12.241,7.883,16.772
		c-6.771,4.647-19.127,3.072-25.333-7.294C-2.734,43.289,1.006,30.201,9.153,24.752z"/>
	<path fill-rule="evenodd" clip-rule="evenodd" d="M35.067,61.139c4.709-4.663,7.39-10.275,7.999-17.021
		c0.035-0.392,0.426-0.858,0.769-1.09c3.56-2.399,6.479-5.508,8.341-9.54c1.25-2.703,2.031-5.656,3.006-8.45
		c6.191,3.634,11.538,15.64,6.299,26.806C56.245,63.004,43.686,66.397,35.067,61.139z"/>
	<path fill-rule="evenodd" clip-rule="evenodd" d="M12.562,18.724c1.382-10.323,9.392-18.098,18.821-18.32
		c10.035-0.236,18.579,7.439,20.084,18.25c-1.557-0.32-3.078-0.667-4.61-0.942c-5.044-0.904-9.713,0.333-14.161,2.879
		c-0.36,0.206-0.994,0.235-1.345,0.032c-5.74-3.317-11.704-4.166-17.972-2.037C13.127,18.672,12.85,18.678,12.562,18.724z"/>
	<path fill-rule="evenodd" clip-rule="evenodd" d="M31.973,43.458c-2.357-0.602-4.62-1.122-6.841-1.797
		c-0.389-0.118-0.897-0.917-0.859-1.351c0.524-5.86,2.88-10.724,7.128-14.465c0.255-0.225,1.011-0.177,1.284,0.067
		c4.176,3.736,6.48,8.563,7.084,14.35c0.078,0.742-0.098,1.215-0.879,1.403C36.594,42.22,34.312,42.847,31.973,43.458z"/>
	<path fill-rule="evenodd" clip-rule="evenodd" d="M28.939,23.378c-4.396,4.25-7.072,9.502-7.913,16
		c-3.422-2.455-5.835-5.554-7.18-9.499c-0.681-1.997-1.014-4.139-1.396-6.239c-0.066-0.359,0.316-1.042,0.654-1.222
		C17.457,20.1,24.869,20.554,28.939,23.378z"/>
	<path fill-rule="evenodd" clip-rule="evenodd" d="M43.015,39.533c-0.877-6.616-3.558-11.863-8.183-16.373
		c1.781-0.633,3.314-1.324,4.912-1.714c3.668-0.896,7.287-0.607,10.837,0.802c0.795,0.315,1.097,0.725,1.007,1.635
		c-0.499,5.014-2.388,9.318-5.665,12.906C45.112,37.675,44.186,38.436,43.015,39.533z"/>
	<path fill-rule="evenodd" clip-rule="evenodd" d="M39.638,45.167c-0.9,6.002-3.424,10.452-7.48,13.929
		c-3.413-1.837-7.838-9.353-7.517-13.868C29.517,47.041,34.406,46.932,39.638,45.167z"/>
</g>
</svg>
